<svg xmlns="http://www.w3.org/2000/svg"  viewBox="0 0 48 48" width="16px" height="16px"><path fill="#1565c0" d="M23 11.9H25V36.1H23z"/><path fill="#1565c0" d="M23 11.6H25V36.3H23z" transform="rotate(-60.802 24 24)"/><path fill="#1565c0" d="M11.6 23H36.3V25H11.6z" transform="rotate(-29.208 23.998 23.998)"/><path fill="#1565c0" d="M24,36.5l-4.7-4.5l-6.5-1.7l1.7-6.3l-1.7-6.3l6.5-1.7l4.7-4.5l4.7,4.5l6.5,1.7L33.4,24l1.7,6.3 l-6.5,1.7L24,36.5z M15.3,28.8l5,1.3l3.7,3.6l3.7-3.6l5-1.3L31.3,24l1.3-4.8l-5-1.3L24,14.3l-3.7,3.6l-5,1.3l1.3,4.8L15.3,28.8z"/><path fill="#2196f3" d="M23 35H25V44H23zM23 4H25V13H23z"/><path fill="#2196f3" d="M36.8 27H38.8V36.4H36.8z" transform="rotate(-60.403 37.803 31.684)"/><path fill="#2196f3" d="M9.1 11.7H11.1V20.799999999999997H9.1z" transform="rotate(-60.797 10.081 16.222)"/><path fill="#2196f3" d="M5.5 30.7H14.9V32.7H5.5z" transform="rotate(-29.203 10.25 31.686)"/><path fill="#2196f3" d="M33.1 15.3H42.400000000000006V17.3H33.1z" transform="rotate(-29.203 37.8 16.286)"/><path fill="#2196f3" d="M24 14.3L17.7 8.2 19.1 6.8 24 11.5 28.9 6.8 30.3 8.2zM28.9 41.2L24 36.5 19.1 41.2 17.7 39.8 24 33.7 30.3 39.8zM6.7 21.4L6.2 19.5 12.8 17.7 11.1 11.3 13 10.7 15.3 19.2zM35 37.3L32.7 28.8 41.3 26.6 41.8 28.5 35.2 30.3 36.9 36.7zM41.3 21.4L32.7 19.2 35 10.7 36.9 11.3 35.2 17.7 41.8 19.5zM13 37.3L11.1 36.7 12.8 30.3 6.2 28.5 6.7 26.6 15.3 28.8z"/></svg>